<svg width="41" height="40" viewBox="0 0 41 40" fill="none" xmlns="http://www.w3.org/2000/svg">
<path d="M9.68305 0C4.32762 0 0 4.30686 0 9.63661V40H40.1928V0H9.68305ZM29.2655 31.6016H8.76343C7.51924 31.6016 6.54552 30.6326 6.54552 29.3943C6.54552 28.1561 7.51924 27.1871 8.76343 27.1871H29.2114C30.4556 27.1871 31.4293 28.1561 31.4293 29.3943C31.4834 30.6326 30.5097 31.6016 29.2655 31.6016ZM29.2655 22.2342H8.76343C7.51924 22.2342 6.54552 21.2651 6.54552 20.0269C6.54552 18.7887 7.51924 17.8196 8.76343 17.8196H29.2114C30.4556 17.8196 31.4293 18.7887 31.4293 20.0269C31.4834 21.2113 30.5097 22.2342 29.2655 22.2342ZM29.2655 12.8129H8.76343C7.51924 12.8129 6.54552 11.8439 6.54552 10.6057C6.54552 9.36743 7.51924 8.39839 8.76343 8.39839H29.2114C30.4556 8.39839 31.4293 9.36743 31.4293 10.6057C31.4834 11.79 30.5097 12.8129 29.2655 12.8129Z" fill="#E836B5"/>
</svg>
