<svg width="61" height="40" viewBox="0 0 61 40" fill="none" xmlns="http://www.w3.org/2000/svg">
<path d="M9.68305 0C4.32762 0 0 4.30686 0 9.63661V40H40.1928V0H9.68305ZM29.2655 31.6016H8.76343C7.51924 31.6016 6.54552 30.6326 6.54552 29.3943C6.54552 28.1561 7.51924 27.1871 8.76343 27.1871H29.2114C30.4556 27.1871 31.4293 28.1561 31.4293 29.3943C31.4834 30.6326 30.5097 31.6016 29.2655 31.6016ZM29.2655 22.2342H8.76343C7.51924 22.2342 6.54552 21.2651 6.54552 20.0269C6.54552 18.7887 7.51924 17.8196 8.76343 17.8196H29.2114C30.4556 17.8196 31.4293 18.7887 31.4293 20.0269C31.4834 21.2113 30.5097 22.2342 29.2655 22.2342ZM29.2655 12.8129H8.76343C7.51924 12.8129 6.54552 11.8439 6.54552 10.6057C6.54552 9.36743 7.51924 8.39839 8.76343 8.39839H29.2114C30.4556 8.39839 31.4293 9.36743 31.4293 10.6057C31.4834 11.79 30.5097 12.8129 29.2655 12.8129Z" fill="#E836B5"/>
<path d="M45.7646 40H34.5669C26.5608 40 20.0693 33.5397 20.0693 25.572V14.428C20.0693 6.46029 26.5608 0 34.5669 0H45.7646C53.7707 0 60.2621 6.46029 60.2621 14.428V25.572C60.2621 33.5397 53.7707 40 45.7646 40Z" fill="#43B6FF"/>
<path d="M31.4834 8.23688L41.7074 18.4118C42.573 19.2732 42.573 20.673 41.7074 21.5343C40.8419 22.3957 39.4354 22.3957 38.5699 21.5343L28.3459 11.3594C27.4804 10.498 27.4804 9.09825 28.3459 8.23688C29.2114 7.37551 30.6179 7.37551 31.4834 8.23688Z" fill="white"/>
<path d="M49.7136 13.6205L41.7615 21.5343C40.896 22.3957 39.4896 22.3957 38.624 21.5343C37.7585 20.673 37.7585 19.2732 38.624 18.4119L46.5219 10.498C47.3875 9.63662 48.7939 9.63662 49.6595 10.498C50.5791 11.3594 50.5791 12.7591 49.7136 13.6205Z" fill="white"/>
</svg>
