<svg width="75" height="26" viewBox="0 0 75 26" fill="none" xmlns="http://www.w3.org/2000/svg">
<path d="M5.54173 7.05113C5.54173 7.80483 5.8663 8.39703 6.46135 8.93539C7.0564 9.47374 7.81373 9.85059 8.67925 10.1198C9.54477 10.389 10.5185 10.712 11.6004 11.1427C12.6282 11.5733 13.6019 12.004 14.5215 12.4347C15.4412 12.8654 16.1444 13.5653 16.7394 14.5343C17.3345 15.4495 17.6591 16.5801 17.6591 17.8721C17.6591 20.0794 16.9558 21.856 15.5494 23.148C14.1429 24.4401 12.0332 25.14 9.2202 25.14C6.67773 25.14 4.51392 24.6554 2.67468 23.7402C1.91735 23.3095 1.3764 22.825 1.10592 22.2867C0.835444 21.6945 0.889537 21.1561 1.21411 20.5639C1.64687 19.6487 2.67468 19.541 4.18935 20.1332C6.02859 20.9946 7.75963 21.4253 9.38249 21.4253C10.6808 21.4253 11.7086 21.1561 12.4118 20.6716C13.1692 20.1871 13.5478 19.4334 13.5478 18.4643C13.5478 17.4953 13.1151 16.7416 12.3036 16.1494C11.4922 15.5572 10.4644 15.0727 9.3284 14.6958C8.1383 14.319 7.0023 13.8883 5.81221 13.4576C4.62211 12.9731 3.6484 12.2194 2.78287 11.1965C1.97144 10.1736 1.53868 8.82771 1.53868 7.26648C1.53868 5.27455 2.18782 3.76715 3.5402 2.58276C4.89258 1.45221 6.84002 0.860016 9.43659 0.860016C11.7627 0.860016 13.7642 1.34454 15.4412 2.31358C16.8476 3.06728 17.2263 4.03633 16.6313 5.22072C16.1444 6.18976 15.0084 6.35127 13.3314 5.59757C11.8709 5.00537 10.4644 4.68236 9.11201 4.68236C6.67773 4.57469 5.54173 5.43606 5.54173 7.05113Z" fill="white"/>
<path d="M20.3638 3.1211C20.3638 2.52891 20.5261 2.09823 20.8507 1.72137C21.1753 1.34452 21.6621 1.12918 22.2572 1.12918C22.8522 1.12918 23.3391 1.29069 23.7177 1.72137C24.0423 2.09823 24.2587 2.58275 24.2587 3.1211V18.9488C24.2587 19.9179 24.421 20.6177 24.6914 21.0484C25.016 21.4791 25.5029 21.6945 26.2061 21.6945C26.7471 21.6945 27.3421 21.5329 28.0454 21.2638C28.4781 21.1023 28.9109 21.0484 29.2895 21.1561C29.6682 21.2638 29.9928 21.5329 30.1551 21.9098C30.5337 22.9327 30.1551 23.7402 29.0732 24.3324C28.2076 24.8169 27.0175 25.0861 25.6111 25.0861C22.149 25.0861 20.4179 23.2019 20.4179 19.4872V3.1211H20.3638Z" fill="white"/>
<path d="M41.461 22.2328C40.325 24.2248 38.4857 25.1938 35.9432 25.1938C34.2122 25.1938 32.8598 24.7631 31.8861 23.8479C30.9124 22.9327 30.4255 21.6945 30.4255 20.1871C30.4255 18.249 31.1288 16.7954 32.5352 15.934C33.9417 15.0188 35.7269 14.5882 37.8366 14.5882C39.2972 14.5882 40.4872 14.642 41.461 14.8035V14.4266C41.461 13.3499 41.2446 12.4886 40.7577 11.8964C40.2709 11.3042 39.3512 10.9812 37.9448 10.9812C37.6202 10.9812 37.3497 10.9812 37.0792 11.035C36.8088 11.035 36.5383 11.0888 36.2137 11.1965C35.9432 11.2503 35.6728 11.3042 35.5105 11.4118L34.6991 11.681C34.3204 11.7887 34.0499 11.8964 33.8876 11.8964C33.4549 12.0579 33.0762 12.0579 32.6975 11.8964C32.3189 11.7349 32.0484 11.5195 31.9402 11.0888C31.6697 10.2813 31.9402 9.63526 32.8057 9.04307C34.0499 8.18169 35.9432 7.75101 38.4316 7.75101C42.9756 7.75101 45.1935 9.8506 45.1935 14.1036V22.8789C45.1935 23.4711 45.0312 23.9556 44.7067 24.3324C44.3821 24.7093 43.9493 24.8708 43.3002 24.8708C42.7051 24.8708 42.2183 24.6554 41.8937 24.2786C41.5692 23.9017 41.4069 23.4172 41.4069 22.8789V22.2328H41.461ZM40.2709 20.7793C41.0823 19.8641 41.461 18.8412 41.461 17.6568V17.0646C40.7036 16.9569 39.7299 16.9031 38.3775 16.9031C35.6187 16.9031 34.2663 17.8721 34.2663 19.8102C34.2663 20.5101 34.4827 21.1023 34.9695 21.533C35.4564 21.9637 36.1055 22.179 36.9711 22.179C38.3775 22.1252 39.4594 21.6945 40.2709 20.7793Z" fill="white"/>
<path d="M49.3048 5.86674C49.3048 5.27455 49.4671 4.84386 49.7916 4.46701C50.1162 4.09016 50.6031 3.87482 51.1981 3.87482C51.7932 3.87482 52.28 4.03632 52.6587 4.46701C52.9832 4.84386 53.1996 5.32838 53.1996 5.86674V7.96634H56.1208C57.365 7.96634 57.96 8.50469 57.96 9.63525C57.96 10.7658 57.365 11.3042 56.1208 11.3042H53.1996V18.9488C53.1996 19.9179 53.3619 20.6177 53.6324 21.0484C53.957 21.4791 54.4438 21.6945 55.1471 21.6945C55.688 21.6945 56.2831 21.533 56.9863 21.2638C57.4191 21.1023 57.8518 21.0484 58.2305 21.1561C58.6092 21.2638 58.8796 21.533 59.0419 21.9098C59.4206 22.8789 59.096 23.6864 57.96 24.3324C57.0404 24.8708 55.9044 25.14 54.4979 25.14C50.9817 25.14 49.2507 23.2019 49.2507 19.3257V5.86674H49.3048Z" fill="white"/>
<path d="M63.7482 17.8183C63.8023 19.1103 64.2351 20.1332 65.0465 20.8869C65.8579 21.6406 66.9398 22.0175 68.2381 22.0175C69.2659 22.0175 70.456 21.6945 71.9166 21.1023C72.9444 20.6716 73.6476 20.8331 74.0263 21.5868C74.2427 21.9098 74.2968 22.2867 74.1345 22.7173C74.0263 23.148 73.7017 23.471 73.2689 23.7402C71.9166 24.6554 70.1314 25.0861 67.8053 25.0861C65.2088 25.0861 63.2613 24.3324 61.909 22.825C60.5566 21.3176 59.8533 19.1642 59.8533 16.4185C59.8533 13.7268 60.5566 11.6272 62.0171 10.0121C63.4777 8.39701 65.4251 7.58948 67.8594 7.58948C70.0773 7.58948 71.8084 8.23551 73.0526 9.47373C74.2968 10.712 74.9459 12.3809 74.9459 14.4266C74.9459 15.0727 74.8918 15.611 74.7836 16.0417C74.6213 16.6339 74.3509 17.0646 74.0263 17.3338C73.7017 17.6029 73.1608 17.7644 72.5116 17.7644H63.7482V17.8183ZM64.9924 11.8963C64.2891 12.65 63.8564 13.7268 63.7482 15.1265H71.3756C71.3756 14.9111 71.4297 14.5881 71.4297 14.2651C71.4297 13.2422 71.1592 12.3809 70.5642 11.7887C69.9691 11.1426 69.1036 10.8196 67.9676 10.8196C66.7234 10.8196 65.7497 11.1426 64.9924 11.8963Z" fill="white"/>
</svg>
